<?xml version="1.0" encoding="UTF-8"?>
<svg width="12px" height="11px" viewBox="0 0 12 11" version="1.1" xmlns="http://www.w3.org/2000/svg" xmlns:xlink="http://www.w3.org/1999/xlink">
    <!-- Generator: Sketch 42 (36781) - http://www.bohemiancoding.com/sketch -->
    <title>City</title>
    <desc>Created with Sketch.</desc>
    <defs>
        <rect id="path-1" x="0" y="0" width="24" height="24"></rect>
    </defs>
    <g id="Visual-Design" stroke="none" stroke-width="1" fill="none" fill-rule="evenodd" opacity="0.5">
        <g id="Take-Order-_3_1" transform="translate(-540.000000, -369.000000)">
            <g id="Overflow-Menu" transform="translate(518.000000, 303.000000)">
                <g id="City" transform="translate(16.000000, 59.000000)">
                    <mask id="mask-2" fill="white">
                        <use xlink:href="#path-1"></use>
                    </mask>
                    <g id="Mask"></g>
                    <path d="M12,9.4 L12,7 L6,7 L6,17.8 L18,17.8 L18,9.4 L12,9.4 Z M8.4,16.6 L7.2,16.6 L7.2,15.4 L8.4,15.4 L8.4,16.6 Z M8.4,14.2 L7.2,14.2 L7.2,13 L8.4,13 L8.4,14.2 Z M8.4,11.8 L7.2,11.8 L7.2,10.6 L8.4,10.6 L8.4,11.8 Z M8.4,9.4 L7.2,9.4 L7.2,8.2 L8.4,8.2 L8.4,9.4 Z M10.8,16.6 L9.6,16.6 L9.6,15.4 L10.8,15.4 L10.8,16.6 Z M10.8,14.2 L9.6,14.2 L9.6,13 L10.8,13 L10.8,14.2 Z M10.8,11.8 L9.6,11.8 L9.6,10.6 L10.8,10.6 L10.8,11.8 Z M10.8,9.4 L9.6,9.4 L9.6,8.2 L10.8,8.2 L10.8,9.4 Z M16.8,16.6 L12,16.6 L12,15.4 L13.2,15.4 L13.2,14.2 L12,14.2 L12,13 L13.2,13 L13.2,11.8 L12,11.8 L12,10.6 L16.8,10.6 L16.8,16.6 Z M15.6,11.8 L14.4,11.8 L14.4,13 L15.6,13 L15.6,11.8 Z M15.6,14.2 L14.4,14.2 L14.4,15.4 L15.6,15.4 L15.6,14.2 Z" id="Shape" fill="#000000" fill-rule="nonzero" mask="url(#mask-2)"></path>
                </g>
            </g>
        </g>
    </g>
</svg>