<?xml version="1.0" encoding="UTF-8"?>
<svg width="21px" height="21px" viewBox="0 0 21 21" version="1.1" xmlns="http://www.w3.org/2000/svg" xmlns:xlink="http://www.w3.org/1999/xlink">
    <!-- Generator: Sketch 42 (36781) - http://www.bohemiancoding.com/sketch -->
    <title>Search Icon</title>
    <desc>Created with Sketch.</desc>
    <defs></defs>
    <g id="Visual-Design" stroke="none" stroke-width="1" fill="none" fill-rule="evenodd" opacity="0.400000006">
        <g id="CC-Take-Order-Menu-List" transform="translate(-259.000000, -171.000000)">
            <g id="Search-Icon" transform="translate(256.000000, 168.000000)">
                <path d="M18.0833333,16.3333333 L17.1616667,16.3333333 L16.835,16.0183333 C17.9783333,14.6883333 18.6666667,12.9616667 18.6666667,11.0833333 C18.6666667,6.895 15.2716667,3.5 11.0833333,3.5 C6.895,3.5 3.5,6.895 3.5,11.0833333 C3.5,15.2716667 6.895,18.6666667 11.0833333,18.6666667 C12.9616667,18.6666667 14.6883333,17.9783333 16.0183333,16.835 L16.3333333,17.1616667 L16.3333333,18.0833333 L22.1666667,23.905 L23.905,22.1666667 L18.0833333,16.3333333 L18.0833333,16.3333333 Z M11.0833333,16.3333333 C8.17833333,16.3333333 5.83333333,13.9883333 5.83333333,11.0833333 C5.83333333,8.17833333 8.17833333,5.83333333 11.0833333,5.83333333 C13.9883333,5.83333333 16.3333333,8.17833333 16.3333333,11.0833333 C16.3333333,13.9883333 13.9883333,16.3333333 11.0833333,16.3333333 L11.0833333,16.3333333 Z" id="Shape" fill="#000000"></path>
                <polygon id="Shape" points="0 0 28 0 28 28 0 28"></polygon>
            </g>
        </g>
    </g>
</svg>