<?xml version="1.0" encoding="UTF-8"?>
<svg width="25px" height="25px" viewBox="0 0 25 25" version="1.1" xmlns="http://www.w3.org/2000/svg" xmlns:xlink="http://www.w3.org/1999/xlink">
    <!-- Generator: Sketch 42 (36781) - http://www.bohemiancoding.com/sketch -->
    <title>Offer</title>
    <desc>Created with Sketch.</desc>
    <defs></defs>
    <g id="2.Menu-Page" stroke="none" stroke-width="1" fill="none" fill-rule="evenodd">
        <g id="1.-Menu" transform="translate(-15.000000, -41.000000)" stroke="#FFFFFF" fill="#FFFFFF">
            <g id="Offer" transform="translate(16.000000, 42.000000)">
                <g id="Group">
                    <path d="M8.78186667,6.40693333 C7.4448,6.40693333 6.36106667,7.4816 6.36106667,8.80693333 C6.36106667,10.1322667 7.4448,11.2069333 8.78186667,11.2069333 C10.1184,11.2069333 11.2021333,10.1322667 11.2021333,8.80693333 C11.2021333,7.4816 10.1184,6.40693333 8.78186667,6.40693333 L8.78186667,6.40693333 Z M8.78186667,10.1402667 C8.03893333,10.1402667 7.43733333,9.54346667 7.43733333,8.80693333 C7.43733333,8.0704 8.03946667,7.4736 8.78186667,7.4736 C9.5248,7.4736 10.1269333,8.0704 10.1269333,8.80693333 C10.1269333,9.54346667 9.52426667,10.1402667 8.78186667,10.1402667 L8.78186667,10.1402667 Z M14.6986667,12.2736 C13.3621333,12.2736 12.2784,13.3482667 12.2784,14.6736 C12.2784,15.9989333 13.3621333,17.0736 14.6986667,17.0736 C16.0357333,17.0736 17.1194667,15.9989333 17.1194667,14.6736 C17.1194667,13.3482667 16.0352,12.2736 14.6986667,12.2736 L14.6986667,12.2736 Z M13.3541333,14.6736 C13.3541333,13.9370667 13.9562667,13.3402667 14.6986667,13.3402667 C15.4416,13.3402667 16.0437333,13.9370667 16.0437333,14.6736 C16.0437333,15.4101333 15.4410667,16.0069333 14.6986667,16.0069333 C13.9557333,16.0069333 13.3541333,15.4101333 13.3541333,14.6736 Z M23.3253333,11.3696 L20.3466667,8.416 L20.3466667,3.74026667 C20.3466667,3.44533333 20.1056,3.20693333 19.8085333,3.20693333 L15.0917333,3.20693333 L12.1130667,0.253866667 C11.9066667,0.0490666667 11.5722667,0.0490666667 11.3658667,0.253866667 L8.38773333,3.20693333 L3.67146667,3.20693333 C3.3744,3.20693333 3.13333333,3.44533333 3.13333333,3.74026667 L3.13333333,8.41653333 L0.154666667,11.3696 C-0.0517333333,11.5738667 -0.0517333333,11.9056 0.154666667,12.1104 L3.13333333,15.0634667 L3.13333333,19.7402667 C3.13333333,20.0346667 3.3744,20.2736 3.67146667,20.2736 L8.38826667,20.2736 L11.3664,23.2266667 C11.5733333,23.4314667 11.9077333,23.4314667 12.1136,23.2266667 L15.0922667,20.2736 L19.8090667,20.2736 C20.1061333,20.2736 20.3472,20.0346667 20.3472,19.7402667 L20.3472,15.0634667 L23.3258667,12.1104 C23.5317333,11.9056 23.5317333,11.5738667 23.3253333,11.3696 L23.3253333,11.3696 Z M19.2709333,14.8330667 L19.2709333,19.2069333 L14.8592,19.2069333 L11.8250667,22.2154667 L8.79146667,19.2069333 L4.2096,19.2069333 L4.2096,14.664 L1.26026667,11.7402667 L4.2096,8.81653333 L4.2096,4.2736 L8.79146667,4.2736 L11.8250667,1.26506667 L14.8592,4.2736 L19.2709333,4.2736 L19.2709333,8.64746667 L22.3904,11.7402667 L19.2709333,14.8330667 L19.2709333,14.8330667 Z" id="Shape"></path>
                    <path d="M16.2171569,7.12106929 L7.13452606,15.2951559 C6.95515798,15.4565816 6.95515798,15.717505 7.13452606,15.8789307 C7.31389415,16.0403564 7.60381903,16.0403564 7.78318711,15.8789307 L16.865818,7.70484415 C17.0447273,7.54383128 17.0447273,7.28249501 16.865818,7.12106929 C16.6864499,6.95964357 16.396525,6.95964357 16.2171569,7.12106929 Z" id="Shape"></path>
                </g>
            </g>
        </g>
    </g>
</svg>