<?xml version="1.0" encoding="UTF-8"?>
<svg width="140px" height="126px" viewBox="0 0 140 126" version="1.1" xmlns="http://www.w3.org/2000/svg" xmlns:xlink="http://www.w3.org/1999/xlink">
    <!-- Generator: Sketch 41.2 (35397) - http://www.bohemiancoding.com/sketch -->
    <title>Payment Successful</title>
    <desc>Created with Sketch.</desc>
    <defs></defs>
    <g id="Thank-You-Pages" stroke="none" stroke-width="1" fill="none" fill-rule="evenodd">
        <g id="OO-Payment" transform="translate(-990.000000, -194.000000)" fill="#50AD59">
            <g id="Payment-Successful" transform="translate(990.000000, 194.500000)">
                <path d="M129.178082,0 L10.8219178,0 C4.85479452,0 0,4.86638806 0,10.8477612 L0,81.1522388 C0,87.1336119 4.85479452,92 10.8219178,92 L54.6575342,92 C55.7923288,92 56.7123288,91.077803 56.7123288,89.9402985 C56.7123288,88.802794 55.7923288,87.880597 54.6575342,87.880597 L10.8219178,87.880597 C7.12082192,87.880597 4.10958904,84.8621731 4.10958904,81.1522388 L4.10958904,10.8477612 C4.10958904,7.13782687 7.12082192,4.11940299 10.8219178,4.11940299 L129.178082,4.11940299 C132.879178,4.11940299 135.890411,7.13782687 135.890411,10.8477612 L135.890411,81.1522388 C135.890411,82.2897433 136.810411,83.2119403 137.945205,83.2119403 C139.08,83.2119403 140,82.2897433 140,81.1522388 L140,10.8477612 C140,4.86638806 135.145205,0 129.178082,0 Z" id="Shape"></path>
                <path d="M56.9245283,72 L17.0754717,72 C15.9292579,72 15,72.8954667 15,74 C15,75.1045333 15.9292579,76 17.0754717,76 L56.9245283,76 C58.0707421,76 59,75.1045333 59,74 C59,72.8954667 58.0707421,72 56.9245283,72 Z" id="Shape"></path>
                <path d="M40.8935418,35.1272797 L40.8935418,26.4052446 C40.8935418,22.8733655 38.0201764,20 34.4882973,20 L21.4052446,20 C17.8733655,20 15,22.8733655 15,26.4052446 L15,35.1272797 C15,38.6591588 17.8733655,41.5325243 21.4052446,41.5325243 L34.4882973,41.5325243 C38.0201764,41.5325243 40.8935418,38.6591588 40.8935418,35.1272797 Z M19.088454,35.1272797 L19.088454,32.8104891 L21.4052446,32.8104891 C22.534203,32.8104891 23.4494716,31.8952206 23.4494716,30.7662621 C23.4494716,29.6373037 22.534203,28.7220351 21.4052446,28.7220351 L19.088454,28.7220351 L19.088454,26.4052446 C19.088454,25.127739 20.127739,24.088454 21.4052446,24.088454 L25.9025439,24.088454 L25.9025439,37.4440703 L21.4052446,37.4440703 C20.127739,37.4440703 19.088454,36.4047853 19.088454,35.1272797 Z M34.4882973,37.4440703 L29.9909979,37.4440703 L29.9909979,24.088454 L34.4882973,24.088454 C35.7658029,24.088454 36.8050879,25.127739 36.8050879,26.4052446 L36.8050879,28.7220351 L34.4882973,28.7220351 C33.3593389,28.7220351 32.4440703,29.6373037 32.4440703,30.7662621 C32.4440703,31.8952206 33.3593389,32.8104891 34.4882973,32.8104891 L36.8050879,32.8104891 L36.8050879,35.1272797 C36.8050879,36.4047853 35.7658029,37.4440703 34.4882973,37.4440703 Z" id="Shape"></path>
                <path d="M15,61.0645161 C15,62.1334194 15.8954667,63 17,63 C18.1045333,63 19,62.1334194 19,61.0645161 L19,56.9354839 C19,55.8665806 18.1045333,55 17,55 C15.8954667,55 15,55.8665806 15,56.9354839 L15,61.0645161 Z" id="Shape"></path>
                <path d="M22,56.9354839 L22,61.0645161 C22,62.1334194 22.8954667,63 24,63 C25.1045333,63 26,62.1334194 26,61.0645161 L26,56.9354839 C26,55.8665806 25.1045333,55 24,55 C22.8954667,55 22,55.8665806 22,56.9354839 Z" id="Shape"></path>
                <path d="M28,56.9354839 L28,61.0645161 C28,62.1334194 28.8954667,63 30,63 C31.1045333,63 32,62.1334194 32,61.0645161 L32,56.9354839 C32,55.8665806 31.1045333,55 30,55 C28.8954667,55 28,55.8665806 28,56.9354839 Z" id="Shape"></path>
                <path d="M35,56.9354839 L35,61.0645161 C35,62.1334194 35.8954667,63 37,63 C38.1045333,63 39,62.1334194 39,61.0645161 L39,56.9354839 C39,55.8665806 38.1045333,55 37,55 C35.8954667,55 35,55.8665806 35,56.9354839 Z" id="Shape"></path>
                <path d="M48,61.0645161 L48,56.9354839 C48,55.8665806 47.1045333,55 46,55 C44.8954667,55 44,55.8665806 44,56.9354839 L44,61.0645161 C44,62.1334194 44.8954667,63 46,63 C47.1045333,63 48,62.1334194 48,61.0645161 Z" id="Shape"></path>
                <path d="M54,61.0645161 L54,56.9354839 C54,55.8665806 53.1045333,55 52,55 C50.8954667,55 50,55.8665806 50,56.9354839 L50,61.0645161 C50,62.1334194 50.8954667,63 52,63 C53.1045333,63 54,62.1334194 54,61.0645161 Z" id="Shape"></path>
                <path d="M59,55 C57.8954667,55 57,55.8665806 57,56.9354839 L57,61.0645161 C57,62.1334194 57.8954667,63 59,63 C60.1045333,63 61,62.1334194 61,61.0645161 L61,56.9354839 C61,55.8665806 60.1045333,55 59,55 Z" id="Shape"></path>
                <path d="M67,61.0645161 L67,56.9354839 C67,55.8665806 66.1045333,55 65,55 C63.8954667,55 63,55.8665806 63,56.9354839 L63,61.0645161 C63,62.1334194 63.8954667,63 65,63 C66.1045333,63 67,62.1334194 67,61.0645161 Z" id="Shape"></path>
                <path d="M112.849315,41.5325243 C118.78575,41.5325243 123.615577,36.7026973 123.615577,30.7662621 C123.615577,24.829827 118.78575,20 112.849315,20 L99.7662621,20 C93.829827,20 89,24.829827 89,30.7662621 C89,36.7026973 93.829827,41.5325243 99.7662621,41.5325243 L112.849315,41.5325243 Z M93.088454,30.7662621 C93.088454,27.0842005 96.0842005,24.088454 99.7662621,24.088454 L112.849315,24.088454 C116.531377,24.088454 119.527123,27.0842005 119.527123,30.7662621 C119.527123,34.4483238 116.531377,37.4440703 112.849315,37.4440703 L99.7662621,37.4440703 C96.0842005,37.4440703 93.088454,34.4483238 93.088454,30.7662621 Z" id="Shape"></path>
                <path d="M97,55 C77.7008627,55 62,70.7008627 62,90 C62,109.299137 77.7008627,125 97,125 C116.299137,125 132,109.299137 132,90 C132,70.7008627 116.299137,55 97,55 Z M97,120.882353 C79.9713333,120.882353 66.1176471,107.028667 66.1176471,90 C66.1176471,72.9713333 79.9713333,59.1176471 97,59.1176471 C114.028667,59.1176471 127.882353,72.9713333 127.882353,90 C127.882353,107.028667 114.028667,120.882353 97,120.882353 Z" id="Shape"></path>
                <path d="M108.231197,78.6328709 L91.7062351,95.0699343 L85.6763819,89.0049216 C84.8325541,88.1610937 83.4789136,88.1610937 82.6350857,88.9873418 C81.7912579,89.8135899 81.7912579,91.1848102 82.617506,92.028638 L90.1592174,99.6230887 C90.5811313,100.045003 91.1261035,100.25596 91.6886554,100.25596 C92.2336275,100.25596 92.7785997,100.045003 93.2005136,99.6230887 L111.254914,81.6741671 C112.098742,80.8303393 112.098742,79.4766987 111.272493,78.6328709 C110.428666,77.789043 109.075025,77.789043 108.231197,78.6328709 Z" id="Shape"></path>
            </g>
        </g>
    </g>
</svg>