<?xml version="1.0" encoding="UTF-8"?>
<svg width="140px" height="125px" viewBox="0 0 140 125" version="1.1" xmlns="http://www.w3.org/2000/svg" xmlns:xlink="http://www.w3.org/1999/xlink">
    <!-- Generator: Sketch 41.2 (35397) - http://www.bohemiancoding.com/sketch -->
    <title>payment-failure</title>
    <desc>Created with Sketch.</desc>
    <defs></defs>
    <g id="Thank-You-Pages" stroke="none" stroke-width="1" fill="none" fill-rule="evenodd">
        <g id="OO-Payment-Failure" transform="translate(-990.000000, -194.000000)" fill="#E32C24">
            <g id="payment-failure" transform="translate(990.000000, 194.500000)">
                <path d="M129.178082,0 L10.8219178,0 C4.85479452,0 0,4.86638806 0,10.8477612 L0,81.1522388 C0,87.1336119 4.85479452,92 10.8219178,92 L54.6575342,92 C55.7923288,92 56.7123288,91.077803 56.7123288,89.9402985 C56.7123288,88.802794 55.7923288,87.880597 54.6575342,87.880597 L10.8219178,87.880597 C7.12082192,87.880597 4.10958904,84.8621731 4.10958904,81.1522388 L4.10958904,10.8477612 C4.10958904,7.13782687 7.12082192,4.11940299 10.8219178,4.11940299 L129.178082,4.11940299 C132.879178,4.11940299 135.890411,7.13782687 135.890411,10.8477612 L135.890411,81.1522388 C135.890411,82.2897433 136.810411,83.2119403 137.945205,83.2119403 C139.08,83.2119403 140,82.2897433 140,81.1522388 L140,10.8477612 C140,4.86638806 135.145205,0 129.178082,0 Z" id="Shape"></path>
                <path d="M57.1880898,71.95679 L17.3390332,71.95679 C16.1928194,71.95679 15.2635615,72.8522566 15.2635615,73.95679 C15.2635615,75.0613233 16.1928194,75.95679 17.3390332,75.95679 L57.1880898,75.95679 C58.3343036,75.95679 59.2635615,75.0613233 59.2635615,73.95679 C59.2635615,72.8522566 58.3343036,71.95679 57.1880898,71.95679 Z" id="Shape"></path>
                <path d="M41.1571034,34.7518588 L41.1571034,26.0298236 C41.1571034,22.4979445 38.2837379,19.6245791 34.7518588,19.6245791 L21.6688061,19.6245791 C18.136927,19.6245791 15.2635615,22.4979445 15.2635615,26.0298236 L15.2635615,34.7518588 C15.2635615,38.2837379 18.136927,41.1571034 21.6688061,41.1571034 L34.7518588,41.1571034 C38.2837379,41.1571034 41.1571034,38.2837379 41.1571034,34.7518588 Z M19.3520155,34.7518588 L19.3520155,32.4350682 L21.6688061,32.4350682 C22.7977645,32.4350682 23.7130331,31.5197996 23.7130331,30.3908412 C23.7130331,29.2618828 22.7977645,28.3466142 21.6688061,28.3466142 L19.3520155,28.3466142 L19.3520155,26.0298236 C19.3520155,24.7523181 20.3913005,23.7130331 21.6688061,23.7130331 L26.1661054,23.7130331 L26.1661054,37.0686494 L21.6688061,37.0686494 C20.3913005,37.0686494 19.3520155,36.0293644 19.3520155,34.7518588 Z M34.7518588,37.0686494 L30.2545594,37.0686494 L30.2545594,23.7130331 L34.7518588,23.7130331 C36.0293644,23.7130331 37.0686494,24.7523181 37.0686494,26.0298236 L37.0686494,28.3466142 L34.7518588,28.3466142 C33.6229004,28.3466142 32.7076318,29.2618828 32.7076318,30.3908412 C32.7076318,31.5197996 33.6229004,32.4350682 34.7518588,32.4350682 L37.0686494,32.4350682 L37.0686494,34.7518588 C37.0686494,36.0293644 36.0293644,37.0686494 34.7518588,37.0686494 Z" id="Shape"></path>
                <path d="M15.2635615,60.5772358 C15.2635615,61.646139 16.1590282,62.5127197 17.2635615,62.5127197 C18.3680948,62.5127197 19.2635615,61.646139 19.2635615,60.5772358 L19.2635615,56.4482035 C19.2635615,55.3793003 18.3680948,54.5127197 17.2635615,54.5127197 C16.1590282,54.5127197 15.2635615,55.3793003 15.2635615,56.4482035 L15.2635615,60.5772358 Z" id="Shape"></path>
                <path d="M21.8050879,56.4482035 L21.8050879,60.5772358 C21.8050879,61.646139 22.7005545,62.5127197 23.8050879,62.5127197 C24.9096212,62.5127197 25.8050879,61.646139 25.8050879,60.5772358 L25.8050879,56.4482035 C25.8050879,55.3793003 24.9096212,54.5127197 23.8050879,54.5127197 C22.7005545,54.5127197 21.8050879,55.3793003 21.8050879,56.4482035 Z" id="Shape"></path>
                <path d="M28.3466142,56.4482035 L28.3466142,60.5772358 C28.3466142,61.646139 29.2420809,62.5127197 30.3466142,62.5127197 C31.4511476,62.5127197 32.3466142,61.646139 32.3466142,60.5772358 L32.3466142,56.4482035 C32.3466142,55.3793003 31.4511476,54.5127197 30.3466142,54.5127197 C29.2420809,54.5127197 28.3466142,55.3793003 28.3466142,56.4482035 Z" id="Shape"></path>
                <path d="M34.8881406,56.4482035 L34.8881406,60.5772358 C34.8881406,61.646139 35.7836073,62.5127197 36.8881406,62.5127197 C37.9926739,62.5127197 38.8881406,61.646139 38.8881406,60.5772358 L38.8881406,56.4482035 C38.8881406,55.3793003 37.9926739,54.5127197 36.8881406,54.5127197 C35.7836073,54.5127197 34.8881406,55.3793003 34.8881406,56.4482035 Z" id="Shape"></path>
                <path d="M47.6101757,60.5772358 L47.6101757,56.4482035 C47.6101757,55.3793003 46.7147091,54.5127197 45.6101757,54.5127197 C44.5056424,54.5127197 43.6101757,55.3793003 43.6101757,56.4482035 L43.6101757,60.5772358 C43.6101757,61.646139 44.5056424,62.5127197 45.6101757,62.5127197 C46.7147091,62.5127197 47.6101757,61.646139 47.6101757,60.5772358 Z" id="Shape"></path>
                <path d="M54.1517021,60.5772358 L54.1517021,56.4482035 C54.1517021,55.3793003 53.2562354,54.5127197 52.1517021,54.5127197 C51.0471688,54.5127197 50.1517021,55.3793003 50.1517021,56.4482035 L50.1517021,60.5772358 C50.1517021,61.646139 51.0471688,62.5127197 52.1517021,62.5127197 C53.2562354,62.5127197 54.1517021,61.646139 54.1517021,60.5772358 Z" id="Shape"></path>
                <path d="M58.6932285,54.5127197 C57.5886951,54.5127197 56.6932285,55.3793003 56.6932285,56.4482035 L56.6932285,60.5772358 C56.6932285,61.646139 57.5886951,62.5127197 58.6932285,62.5127197 C59.7977618,62.5127197 60.6932285,61.646139 60.6932285,60.5772358 L60.6932285,56.4482035 C60.6932285,55.3793003 59.7977618,54.5127197 58.6932285,54.5127197 Z" id="Shape"></path>
                <path d="M67.2347548,60.5772358 L67.2347548,56.4482035 C67.2347548,55.3793003 66.3392882,54.5127197 65.2347548,54.5127197 C64.1302215,54.5127197 63.2347548,55.3793003 63.2347548,56.4482035 L63.2347548,60.5772358 C63.2347548,61.646139 64.1302215,62.5127197 65.2347548,62.5127197 C66.3392882,62.5127197 67.2347548,61.646139 67.2347548,60.5772358 Z" id="Shape"></path>
                <path d="M113.250175,41.1571034 C119.18661,41.1571034 124.016437,36.3272764 124.016437,30.3908412 C124.016437,24.454406 119.18661,19.6245791 113.250175,19.6245791 L100.167122,19.6245791 C94.2306872,19.6245791 89.4008603,24.454406 89.4008603,30.3908412 C89.4008603,36.3272764 94.2306872,41.1571034 100.167122,41.1571034 L113.250175,41.1571034 Z M93.4893142,30.3908412 C93.4893142,26.7087796 96.4850608,23.7130331 100.167122,23.7130331 L113.250175,23.7130331 C116.932237,23.7130331 119.927983,26.7087796 119.927983,30.3908412 C119.927983,34.0729029 116.932237,37.0686494 113.250175,37.0686494 L100.167122,37.0686494 C96.4850608,37.0686494 93.4893142,34.0729029 93.4893142,30.3908412 Z" id="Shape"></path>
                <path d="M97.054246,54.5127197 C77.7551088,54.5127197 62.054246,70.2135824 62.054246,89.5127197 C62.054246,108.811857 77.7551088,124.51272 97.054246,124.51272 C116.353383,124.51272 132.054246,108.811857 132.054246,89.5127197 C132.054246,70.2135824 116.353383,54.5127197 97.054246,54.5127197 Z M97.054246,120.395073 C80.0255794,120.395073 66.1718931,106.541386 66.1718931,89.5127197 C66.1718931,72.484053 80.0255794,58.6303667 97.054246,58.6303667 C114.082913,58.6303667 127.936599,72.484053 127.936599,89.5127197 C127.936599,106.541386 114.082913,120.395073 97.054246,120.395073 Z" id="Shape"></path>
                <path d="M113.515071,72.5556122 C112.716732,71.7572734 111.422328,71.7572734 110.624262,72.5556122 L96.8061048,86.3737689 L82.9879481,72.5556122 C82.1896093,71.7572734 80.8952048,71.7572734 80.0971386,72.5556122 C79.2987998,73.353951 79.2987998,74.6483555 80.0971386,75.4464217 L93.9152953,89.2645785 L80.0971386,103.082735 C79.2987998,103.881074 79.2987998,105.175479 80.0971386,105.973545 C80.4961717,106.372578 81.0194938,106.572367 81.5425433,106.572367 C82.0655929,106.572367 82.588915,106.37285 82.9879481,105.973545 L96.8061048,92.155388 L110.624262,105.973545 C111.023295,106.372578 111.546617,106.572367 112.069666,106.572367 C112.592716,106.572367 113.116038,106.37285 113.515071,105.973545 C114.31341,105.175206 114.31341,103.880801 113.515071,103.082735 L99.6969144,89.2645785 L113.515071,75.4464217 C114.31341,74.6483555 114.31341,73.3536784 113.515071,72.5556122 Z" id="Shape"></path>
            </g>
        </g>
    </g>
</svg>