<?xml version="1.0" encoding="UTF-8"?>
<svg width="24px" height="24px" viewBox="0 0 24 24" version="1.1" xmlns="http://www.w3.org/2000/svg" xmlns:xlink="http://www.w3.org/1999/xlink">
    <!-- Generator: Sketch 42 (36781) - http://www.bohemiancoding.com/sketch -->
    <title>Search</title>
    <desc>Created with Sketch.</desc>
    <defs></defs>
    <g id="2.Menu-Page" stroke="none" stroke-width="1" fill="none" fill-rule="evenodd">
        <g id="1.-Menu" transform="translate(-99.000000, -42.000000)" fill="#FFFFFF">
            <path d="M122.285652,62.1271805 L116.588317,56.4374735 C117.447666,55.0278451 117.942169,53.372789 117.942169,51.6017947 C117.942169,46.4574491 113.478678,42 108.326804,42 C103.176136,42 99,46.1707654 99,51.3154121 C99,56.4600588 103.46349,60.9172068 108.614158,60.9172068 C110.326827,60.9172068 111.930945,60.4540561 113.310125,59.6494146 L119.037914,65.3701388 C119.598451,65.9299549 120.507251,65.9299549 121.067185,65.3701388 L122.488277,63.9517775 C123.049417,63.3916602 122.846189,62.6869966 122.285652,62.1271805 L122.285652,62.1271805 Z M101.87083,51.3154121 C101.87083,47.7535483 104.761862,44.8662343 108.327106,44.8662343 C111.894159,44.8662343 115.071942,48.0399309 115.071942,51.6017947 C115.071942,55.1636585 112.18091,58.0509725 108.61446,58.0509725 C105.048613,58.0509725 101.87083,54.8772759 101.87083,51.3154121 L101.87083,51.3154121 Z" id="Search"></path>
        </g>
    </g>
</svg>