<?xml version="1.0" encoding="UTF-8"?>
<svg width="24px" height="26px" viewBox="0 0 24 26" version="1.1" xmlns="http://www.w3.org/2000/svg" xmlns:xlink="http://www.w3.org/1999/xlink">
    <!-- Generator: Sketch 42 (36781) - http://www.bohemiancoding.com/sketch -->
    <title>shopping-cart</title>
    <desc>Created with Sketch.</desc>
    <defs></defs>
    <g id="2.Menu-Page" stroke="none" stroke-width="1" fill="none" fill-rule="evenodd">
        <g id="1.-Menu" transform="translate(-16.000000, -553.000000)" fill="#6B412F">
            <g id="Cart" transform="translate(0.000000, 536.000000)">
                <g id="Group-2" transform="translate(16.000000, 16.000000)">
                    <g id="shopping-cart" transform="translate(0.000000, 1.000000)">
                        <g id="Capa_1">
                            <path d="M6.83809272,16.9731921 L21.0420662,16.9731921 C22.6526623,16.9731921 23.9665695,15.6592848 23.9665695,14.0486887 L23.9665695,8.0725298 L23.9665695,8.05133775 L23.9665695,8.00895364 C23.9665695,7.99835762 23.9665695,7.98776159 23.9612715,7.97716556 C23.9612715,7.96656954 23.9559735,7.9506755 23.9559735,7.94007947 C23.9559735,7.92948344 23.9506755,7.91888742 23.9506755,7.90829139 C23.9453775,7.89769536 23.9453775,7.88709934 23.9400795,7.8712053 C23.9347815,7.86060927 23.9347815,7.85001325 23.9294834,7.83941722 C23.9241854,7.82882119 23.9241854,7.81822517 23.9188874,7.80762914 C23.9135894,7.79703311 23.9082914,7.78643709 23.9029934,7.77054305 C23.8976954,7.75994702 23.8923974,7.74935099 23.8870993,7.74405298 C23.8818013,7.73345695 23.8765033,7.72286093 23.8712053,7.7122649 C23.8659073,7.70166887 23.8606093,7.69637086 23.8553113,7.68577483 C23.8500132,7.67517881 23.8394172,7.66458278 23.8341192,7.65398675 C23.8288212,7.64339073 23.8235232,7.63809272 23.8129272,7.62749669 C23.8076291,7.61690066 23.7970331,7.61160265 23.7917351,7.60100662 C23.7864371,7.5904106 23.7758411,7.58511258 23.770543,7.57451656 C23.765245,7.56392053 23.754649,7.55862252 23.749351,7.5533245 C23.738755,7.54272848 23.733457,7.53743046 23.7228609,7.52683444 C23.7122649,7.52153642 23.7069669,7.5109404 23.6963709,7.50564238 C23.6857748,7.50034437 23.6751788,7.48974834 23.6645828,7.48445033 C23.6539868,7.47915232 23.6486887,7.4738543 23.6380927,7.46855629 C23.6274967,7.46325828 23.6169007,7.45796026 23.6063046,7.44736424 C23.5957086,7.44206623 23.5851126,7.43676821 23.5745166,7.4314702 C23.5639205,7.42617219 23.5533245,7.42087417 23.5427285,7.41557616 C23.5321325,7.41027815 23.5215364,7.40498013 23.5109404,7.39968212 C23.5003444,7.39438411 23.4897483,7.39438411 23.4791523,7.38908609 C23.4685563,7.38378808 23.4526623,7.37849007 23.4420662,7.37849007 C23.4314702,7.37849007 23.4208742,7.37319205 23.4155762,7.37319205 C23.3996821,7.36789404 23.3890861,7.36789404 23.3731921,7.36789404 C23.367894,7.36789404 23.362596,7.36259603 23.352,7.36259603 L5.34935099,4.87782781 L5.34935099,2.36656954 C5.34935099,2.34007947 5.34935099,2.3135894 5.34405298,2.29239735 C5.34405298,2.28709934 5.34405298,2.28180132 5.33875497,2.2712053 C5.33875497,2.25531126 5.33345695,2.23941722 5.33345695,2.22352318 C5.32815894,2.20762914 5.32815894,2.19703311 5.32286093,2.18113907 C5.32286093,2.17054305 5.31756291,2.16524503 5.31756291,2.15464901 C5.3122649,2.13875497 5.30696689,2.12286093 5.30166887,2.10696689 C5.30166887,2.10166887 5.29637086,2.09107285 5.29637086,2.08577483 C5.29107285,2.06988079 5.28577483,2.05928477 5.27517881,2.04339073 C5.26988079,2.03809272 5.26988079,2.02749669 5.26458278,2.02219868 C5.25928477,2.01160265 5.25398675,2.00100662 5.24339073,1.9904106 C5.23809272,1.97981457 5.2327947,1.97451656 5.22749669,1.96392053 C5.22219868,1.9533245 5.21690066,1.94802649 5.21160265,1.93743046 C5.20630464,1.92683444 5.19570861,1.91623841 5.1904106,1.90564238 C5.18511258,1.90034437 5.17981457,1.89504636 5.17451656,1.88974834 C5.16392053,1.87915232 5.1533245,1.86855629 5.14272848,1.85796026 C5.13743046,1.85266225 5.13213245,1.84736424 5.12683444,1.84206623 C5.11623841,1.8314702 5.10564238,1.82087417 5.08974834,1.81027815 C5.08445033,1.80498013 5.0738543,1.79968212 5.06855629,1.79438411 C5.05796026,1.78378808 5.04736424,1.77849007 5.03676821,1.76789404 C5.02087417,1.75729801 5.00498013,1.74670199 4.99438411,1.74140397 C4.98908609,1.73610596 4.98378808,1.73610596 4.97849007,1.73080795 C4.95729801,1.72021192 4.93080795,1.70961589 4.90961589,1.69901987 L1.00498013,0.0566357616 C0.639417219,-0.0970066225 0.220874172,0.0725298013 0.0672317881,0.438092715 C-0.086410596,0.803655629 0.0831258278,1.22219868 0.448688742,1.37584106 L3.9135894,2.83809272 L3.9135894,6.08047682 L3.9135894,6.59438411 L3.9135894,10.536106 L3.9135894,14.0592848 L3.9135894,18.5096159 C3.9135894,19.9930596 5.02617219,21.2221987 6.46193377,21.4076291 C6.20233113,21.8420662 6.04868874,22.3506755 6.04868874,22.8910728 C6.04868874,24.4857748 7.34670199,25.7784901 8.93610596,25.7784901 C10.5255099,25.7784901 11.8235232,24.4804768 11.8235232,22.8910728 C11.8235232,22.3612715 11.6804768,21.8579603 11.4261722,21.4341192 L17.8579603,21.4341192 C17.6036556,21.8632583 17.4606093,22.3612715 17.4606093,22.8910728 C17.4606093,24.4857748 18.7586225,25.7784901 20.3480265,25.7784901 C21.9374305,25.7784901 23.2354437,24.4804768 23.2354437,22.8910728 C23.2354437,21.3016689 21.9374305,20.0036556 20.3480265,20.0036556 L6.83809272,20.0036556 C6.01160265,20.0036556 5.34405298,19.3308079 5.34405298,18.5096159 L5.34405298,16.570543 C5.77849007,16.8248477 6.29239735,16.9731921 6.83809272,16.9731921 L6.83809272,16.9731921 Z M10.3983576,22.8857748 C10.3983576,23.6910728 9.74140397,24.3427285 8.94140397,24.3427285 C8.14140397,24.3427285 7.48445033,23.6857748 7.48445033,22.8857748 C7.48445033,22.0857748 8.14140397,21.4288212 8.94140397,21.4288212 C9.74140397,21.4288212 10.3983576,22.0804768 10.3983576,22.8857748 L10.3983576,22.8857748 Z M21.8102781,22.8857748 C21.8102781,23.6910728 21.1533245,24.3427285 20.3533245,24.3427285 C19.5533245,24.3427285 18.8963709,23.6857748 18.8963709,22.8857748 C18.8963709,22.0857748 19.5533245,21.4288212 20.3533245,21.4288212 C21.1533245,21.4288212 21.8102781,22.0804768 21.8102781,22.8857748 L21.8102781,22.8857748 Z M21.0420662,15.5427285 L6.83809272,15.5427285 C6.01160265,15.5427285 5.34405298,14.8698808 5.34405298,14.0486887 L5.34405298,10.5255099 L5.34405298,6.58378808 L5.34405298,6.31888742 L22.536106,8.68709934 L22.536106,14.0433907 C22.536106,14.8751788 21.8632583,15.5427285 21.0420662,15.5427285 L21.0420662,15.5427285 Z" id="Shape"></path>
                        </g>
                    </g>
                </g>
            </g>
        </g>
    </g>
</svg>