<?xml version="1.0" encoding="UTF-8"?>
<svg width="102px" height="103px" viewBox="0 0 102 103" version="1.1" xmlns="http://www.w3.org/2000/svg" xmlns:xlink="http://www.w3.org/1999/xlink">
    <!-- Generator: Sketch 41.2 (35397) - http://www.bohemiancoding.com/sketch -->
    <title>wallet</title>
    <desc>Created with Sketch.</desc>
    <defs></defs>
    <g id="Thank-You-Pages" stroke="none" stroke-width="1" fill="none" fill-rule="evenodd">
        <g id="OO-Payment-COD" transform="translate(-1005.000000, -184.000000)" fill="#50AD59">
            <g id="wallet" transform="translate(1005.000000, 184.000000)">
                <path d="M101.545135,47.7834775 L96.6237117,47.7834775 L96.6237117,25.1446847 C96.6237117,19.7172432 92.2083063,15.3018378 86.7808649,15.3018378 L80.1153333,15.3018378 L73.2941982,3.03763964 C72.2545946,1.16335135 70.2761622,0 68.1304865,0 C67.1303964,0 66.1382703,0.25790991 65.2622342,0.744018018 L39.0840721,15.3015315 L9.84284685,15.3015315 C4.41540541,15.3015315 0,19.7169369 0,25.1443784 L0,92.7317838 C0,98.1592252 4.41540541,102.574631 9.84284685,102.574631 L86.7808649,102.574631 C92.2083063,102.574631 96.6237117,98.1592252 96.6237117,92.7317838 L96.6237117,72.8825225 L101.545135,72.8825225 L101.545135,47.7834775 Z M86.7808649,19.2387928 C89.8123784,19.2387928 92.2888649,21.5419099 92.6215135,24.4888829 L85.2236036,24.4888829 L82.306036,19.2387928 L86.7808649,19.2387928 Z M67.1775676,4.18506306 C68.1007748,3.66740541 69.3431532,4.02945946 69.8528468,4.94899099 L80.7193694,24.487045 L30.6664685,24.487045 L67.1775676,4.18506306 Z M92.6864505,92.7317838 C92.6864505,95.9878198 90.0365946,98.6376757 86.7805586,98.6376757 L9.84284685,98.6376757 C6.58681081,98.6376757 3.93695495,95.9878198 3.93695495,92.7317838 L3.93695495,25.1446847 C3.93695495,21.8886486 6.58681081,19.2387928 9.84284685,19.2387928 L32.005027,19.2387928 L22.5637477,24.4891892 L11.0732793,24.4891892 C9.98466667,24.4891892 9.10464865,25.371045 9.10464865,26.4578198 C9.10464865,27.5445946 9.98466667,28.4264505 11.0732793,28.4264505 L15.4828649,28.4264505 L87.4127748,28.4264505 L92.6864505,28.4264505 L92.6864505,47.7853153 L78.2903604,47.7853153 C71.6049189,47.7853153 66.164,53.2265405 66.164,59.9116757 L66.164,60.7583063 C66.164,67.4437477 71.6052252,72.8846667 78.2903604,72.8846667 L92.6864505,72.8846667 L92.6864505,92.7317838 Z M97.6078739,68.9455676 L96.6237117,68.9455676 L78.2903604,68.9455676 C73.7744865,68.9455676 70.100955,65.2723423 70.100955,60.7561622 L70.100955,59.9095315 C70.100955,55.3936577 73.7741802,51.7201261 78.2903604,51.7201261 L96.6237117,51.7201261 L97.6078739,51.7201261 L97.6078739,68.9455676 Z M84.32,60.4945766 C84.32,62.8963243 82.374955,64.8410631 79.9735135,64.8410631 C77.5717658,64.8410631 75.627027,62.896018 75.627027,60.4945766 C75.627027,58.0931351 77.5720721,56.1480901 79.9735135,56.1480901 C82.3752613,56.1477838 84.32,58.0946667 84.32,60.4945766 Z" id="Shape"></path>
            </g>
        </g>
    </g>
</svg>